<svg xmlns="http://www.w3.org/2000/svg" version="1.1" xmlns:xlink="http://www.w3.org/1999/xlink" xmlns:svgjs="http://svgjs.dev/svgjs" width="2000" height="1500" viewBox="0 0 2000 1500"><rect width="2000" height="1500" fill="#0a1627"></rect><g transform="matrix(0.75,0,0,0.75,249.090909090909,282.7536437246963)"><svg viewBox="0 0 396 247" data-background-color="#0a1627" preserveAspectRatio="xMidYMid meet" height="1247" width="2000" xmlns="http://www.w3.org/2000/svg" xmlns:xlink="http://www.w3.org/1999/xlink"><g id="tight-bounds" transform="matrix(1,0,0,1,0.2400000000000091,-0.09999999999999432)"><svg viewBox="0 0 395.52 247.2" height="247.2" width="395.52"><g><svg></svg></g><g><svg viewBox="0 0 395.52 247.2" height="247.2" width="395.52"><g><g><path d="M94.314 0h58.501l0 83.975h-58.501zM152.815 247.2h-58.501l0-83.975h58.501zM233.074 0h61.711l-59.673 83.975-59.234 0zM301.206 247.2h-67.775l-50.158-83.975 65.394 0z" fill="#ffffff" fill-rule="nonzero" stroke="none" stroke-width="1" stroke-linecap="butt" stroke-linejoin="miter" stroke-miterlimit="10" stroke-dasharray="" stroke-dashoffset="0" font-family="none" font-weight="none" font-size="none" text-anchor="none" style="mix-blend-mode: normal" data-fill-palette-color="tertiary"></path></g></g><g transform="matrix(1,0,0,1,0,94.06496777892306)"><svg viewBox="0 0 395.52 59.07006444215386" height="59.07006444215386" width="395.52"><g><svg viewBox="0 0 479.33669825095296 71.58790871554675" height="59.07006444215386" width="395.52"><g transform="matrix(1,0,0,1,0,9.893842666186274)"><svg viewBox="0 0 395.52 51.8002233831742" height="51.8002233831742" width="395.52"><g id="textblocktransform"><svg viewBox="0 0 395.52 51.8002233831742" height="51.8002233831742" width="395.52" id="textblock"><g><svg viewBox="0 0 395.52 51.8002233831742" height="51.8002233831742" width="395.52"><g transform="matrix(1,0,0,1,0,0)"><svg width="395.52" viewBox="3.25 -35.5 277.53 36.35" height="51.8002233831742" data-palette-color="#ffffff"><path d="M3.25-34.65L11.45-34.65 11.45 0 3.25 0 3.25-34.65ZM22.7-34.65L31.35-34.65 20.3-19.1 32.25 0 22.75 0 11.7-18.5 22.7-34.65ZM61.7 0L53.5 0 53.5-14.85 43.1-14.85 43.1 0 34.9 0 34.9-34.65 43.1-34.65 43.1-21.25 53.5-21.25 53.5-34.65 61.7-34.65 61.7 0ZM82.2-35.5Q89.6-35.5 93.72-30.75 97.84-26 97.84-17.35L97.84-17.35Q97.84-11.7 95.97-7.6 94.1-3.5 90.57-1.33 87.05 0.85 82.2 0.85L82.2 0.85Q77.35 0.85 73.85-1.3 70.35-3.45 68.47-7.53 66.6-11.6 66.6-17.35L66.6-17.35Q66.6-22.95 68.47-27.05 70.35-31.15 73.85-33.33 77.35-35.5 82.2-35.5L82.2-35.5ZM82.2-29.5Q78.65-29.5 76.92-26.63 75.2-23.75 75.2-17.35L75.2-17.35Q75.2-10.95 76.95-8.05 78.7-5.15 82.2-5.15L82.2-5.15Q85.8-5.15 87.52-8.03 89.25-10.9 89.25-17.35L89.25-17.35Q89.25-23.8 87.5-26.65 85.75-29.5 82.2-29.5L82.2-29.5ZM116.74-35.5Q124.14-35.5 128.27-30.75 132.39-26 132.39-17.35L132.39-17.35Q132.39-11.7 130.52-7.6 128.64-3.5 125.12-1.33 121.59 0.85 116.74 0.85L116.74 0.85Q111.89 0.85 108.39-1.3 104.89-3.45 103.02-7.53 101.14-11.6 101.14-17.35L101.14-17.35Q101.14-22.95 103.02-27.05 104.89-31.15 108.39-33.33 111.89-35.5 116.74-35.5L116.74-35.5ZM116.74-29.5Q113.19-29.5 111.47-26.63 109.74-23.75 109.74-17.35L109.74-17.35Q109.74-10.95 111.49-8.05 113.24-5.15 116.74-5.15L116.74-5.15Q120.34-5.15 122.07-8.03 123.79-10.9 123.79-17.35L123.79-17.35Q123.79-23.8 122.04-26.65 120.29-29.5 116.74-29.5L116.74-29.5ZM148.44-35.5Q152.34-35.5 155.22-34.4 158.09-33.3 160.44-31.05L160.44-31.05 156.64-26.6Q153.09-29.5 149.04-29.5L149.04-29.5Q146.89-29.5 145.64-28.63 144.39-27.75 144.39-26.1L144.39-26.1Q144.39-24.95 144.94-24.23 145.49-23.5 146.89-22.85 148.29-22.2 151.09-21.3L151.09-21.3Q156.39-19.6 158.89-17.13 161.39-14.65 161.39-10.1L161.39-10.1Q161.39-6.85 159.74-4.38 158.09-1.9 154.99-0.53 151.89 0.85 147.64 0.85L147.64 0.85Q143.39 0.85 140.12-0.5 136.84-1.85 134.49-4.1L134.49-4.1 138.64-8.65Q140.64-6.95 142.77-6.1 144.89-5.25 147.39-5.25L147.39-5.25Q149.94-5.25 151.42-6.38 152.89-7.5 152.89-9.5L152.89-9.5Q152.89-10.8 152.34-11.68 151.79-12.55 150.44-13.25 149.09-13.95 146.54-14.75L146.54-14.75Q140.79-16.5 138.37-19.05 135.94-21.6 135.94-25.5L135.94-25.5Q135.94-28.5 137.54-30.78 139.14-33.05 141.99-34.27 144.84-35.5 148.44-35.5L148.44-35.5ZM192.69 0L184.49 0 184.49-14.85 174.09-14.85 174.09 0 165.89 0 165.89-34.65 174.09-34.65 174.09-21.25 184.49-21.25 184.49-34.65 192.69-34.65 192.69 0ZM226.14 0L217.44 0 215.64-7.45 205.54-7.45 203.79 0 195.29 0 205.74-34.65 215.69-34.65 226.14 0ZM210.59-28.7L206.94-13.4 214.24-13.4 210.59-28.7ZM247.18 0L240.08-13.25 236.88-13.25 236.88 0 228.68 0 228.68-34.65 240.03-34.65Q247.13-34.65 250.71-32.05 254.28-29.45 254.28-24.1L254.28-24.1Q254.28-20.75 252.68-18.53 251.08-16.3 247.63-14.75L247.63-14.75 256.43 0 247.18 0ZM236.88-28.9L236.88-18.9 240.33-18.9Q243.08-18.9 244.46-20.15 245.83-21.4 245.83-24.1L245.83-24.1Q245.83-26.6 244.36-27.75 242.88-28.9 239.83-28.9L239.83-28.9 236.88-28.9ZM259.53-34.65L280.78-34.65 279.93-28.8 267.73-28.8 267.73-20.5 278.38-20.5 278.38-14.75 267.73-14.75 267.73-5.9 280.78-5.9 280.78 0 259.53 0 259.53-34.65Z" opacity="1" transform="matrix(1,0,0,1,0,0)" fill="#ffffff" class="undefined-text-0" data-fill-palette-color="primary" id="text-0"></path></svg></g></svg></g></svg></g></svg></g><g transform="matrix(1,0,0,1,407.7487895354062,0)"><svg viewBox="0 0 71.58790871554675 71.58790871554675" height="71.58790871554675" width="71.58790871554675"><g data-palette-color="#08c076"><rect width="19.567361715582777" height="71.58790871554675" fill="#08c076" stroke="transparent" data-fill-palette-color="accent" x="0" fill-opacity="1"></rect><rect width="19.567361715582777" height="71.58790871554675" fill="#08c076" stroke="transparent" data-fill-palette-color="accent" x="23.86263623851558" fill-opacity="0.75"></rect><rect width="19.567361715582777" height="71.58790871554675" fill="#08c076" stroke="transparent" data-fill-palette-color="accent" x="47.72527247703116" fill-opacity="0.5"></rect></g></svg></g></svg></g></svg></g></svg></g><defs></defs></svg><rect width="395.52" height="247.2" fill="none" stroke="none" visibility="hidden"></rect></g></svg></g></svg>